<svg width="16" height="14" viewBox="0 0 16 14" fill="none" xmlns="http://www.w3.org/2000/svg">
<path fill-rule="evenodd" clip-rule="evenodd" d="M15.5 4.75C15.5 5.16421 15.2725 5.5 14.9919 5.5L5.50806 5.5C5.22747 5.5 5 5.16421 5 4.75C5 4.33579 5.22747 4 5.50806 4L14.9919 4C15.2725 4 15.5 4.33579 15.5 4.75Z" fill="white"/>
<path fill-rule="evenodd" clip-rule="evenodd" d="M15.5 8.75C15.5 9.16421 15.1642 9.5 14.75 9.5L0.75 9.5C0.335787 9.5 0 9.16421 0 8.75C0 8.33579 0.335787 8 0.75 8L14.75 8C15.1642 8 15.5 8.33579 15.5 8.75Z" fill="white"/>
<path fill-rule="evenodd" clip-rule="evenodd" d="M15.5 0.75C15.5 1.16421 15.1642 1.5 14.75 1.5L0.75 1.5C0.335787 1.5 0 1.16421 0 0.75C0 0.335786 0.335787 0 0.75 0L14.75 0C15.1642 0 15.5 0.335786 15.5 0.75Z" fill="white"/>
<path fill-rule="evenodd" clip-rule="evenodd" d="M15.5 12.75C15.5 13.1642 15.2725 13.5 14.9919 13.5L5.50806 13.5C5.22747 13.5 5 13.1642 5 12.75C5 12.3358 5.22747 12 5.50806 12L14.9919 12C15.2725 12 15.5 12.3358 15.5 12.75Z" fill="white"/>
</svg>
